<svg preserveAspectRatio="none" overflow="visible" style="display: block;" width="32.5" height="32" viewBox="0 0 32.5 32" fill="none" xmlns="http://www.w3.org/2000/svg">
<g id="Icon">
<path id="Vector" d="M19.7812 15.0029C18.9271 15.0029 18.125 15.1592 17.375 15.4717C16.6458 15.805 16 16.2477 15.4375 16.7998C14.875 17.3519 14.4375 18.0029 14.125 18.7529C13.7917 19.5029 13.625 20.305 13.625 21.1592C13.625 22.0133 13.7917 22.805 14.125 23.5342C14.4375 24.2842 14.875 24.9404 15.4375 25.5029C16 26.0654 16.6458 26.5029 17.375 26.8154C18.125 27.1488 18.9271 27.3154 19.7812 27.3154C20.6354 27.3154 21.4375 27.1488 22.1875 26.8154C22.9375 26.5029 23.5885 26.0654 24.1406 25.5029C24.6927 24.9404 25.125 24.2842 25.4375 23.5342C25.7708 22.805 25.9375 22.0133 25.9375 21.1592C25.9375 20.305 25.7708 19.5029 25.4375 18.7529C25.125 18.0029 24.6927 17.3519 24.1406 16.7998C23.5885 16.2477 22.9375 15.805 22.1875 15.4717C21.4375 15.1592 20.6354 15.0029 19.7812 15.0029ZM19.7812 24.8467C18.7604 24.8467 17.8906 24.4873 17.1719 23.7686C16.4531 23.0498 16.0938 22.18 16.0938 21.1592C16.0938 20.1383 16.4531 19.2686 17.1719 18.5498C17.8906 17.8311 18.7604 17.4717 19.7812 17.4717C20.8021 17.4717 21.6719 17.8311 22.3906 18.5498C23.1094 19.2686 23.4688 20.1383 23.4688 21.1592C23.4688 22.18 23.1094 23.0498 22.3906 23.7686C21.6719 24.4873 20.8021 24.8467 19.7812 24.8467ZM31.2812 3.50293C30.9271 3.52376 30.6302 3.64876 30.3906 3.87793C30.151 4.1071 30.0312 4.39876 30.0312 4.75293C30.0312 6.33626 29.3854 7.61751 28.0938 8.59668C26.8021 9.57585 24.0312 10.0654 19.7812 10.0654C15.5312 10.0654 12.7604 9.57585 11.4688 8.59668C10.1771 7.61751 9.53125 6.33626 9.53125 4.75293C9.53125 4.39876 9.41146 4.10189 9.17188 3.8623C8.93229 3.62272 8.63542 3.50293 8.28125 3.50293C7.94792 3.50293 7.66146 3.62272 7.42188 3.8623C7.18229 4.10189 7.0625 4.39876 7.0625 4.75293C7.0625 6.69043 7.55208 8.19043 8.53125 9.25293C9.48958 10.3154 10.6458 11.0863 12 11.5654C13.3542 12.0446 14.75 12.3258 16.1875 12.4092C17.625 12.4925 18.8229 12.5342 19.7812 12.5342C20.7396 12.5342 21.9375 12.4925 23.375 12.4092C24.8125 12.3258 26.2083 12.0446 27.5625 11.5654C28.9167 11.0863 30.0833 10.3154 31.0625 9.25293C32.0208 8.19043 32.5 6.69043 32.5 4.75293C32.5 4.39876 32.3802 4.1071 32.1406 3.87793C31.901 3.64876 31.6146 3.52376 31.2812 3.50293ZM10.4688 13.6592H9.9375C8.66667 13.7842 7.60417 14.3154 6.75 15.2529C5.89583 16.1904 5.46875 17.305 5.46875 18.5967C5.46875 19.9508 5.95312 21.1123 6.92188 22.0811C7.89062 23.0498 9.05208 23.5342 10.4062 23.5342C10.4896 23.5342 10.5729 23.5342 10.6562 23.5342C10.7396 23.5342 10.8229 23.5238 10.9062 23.5029H10.875C11.2083 23.5029 11.4896 23.3831 11.7188 23.1436C11.9479 22.904 12.0625 22.6175 12.0625 22.2842C12.0625 21.9508 11.9427 21.6644 11.7031 21.4248C11.4635 21.1852 11.1771 21.0654 10.8438 21.0654C10.8021 21.0654 10.7656 21.0654 10.7344 21.0654C10.7031 21.0654 10.6667 21.0654 10.625 21.0654H10.6562C10.6146 21.0654 10.5729 21.0706 10.5312 21.0811C10.4896 21.0915 10.4479 21.0967 10.4062 21.0967C10.1146 21.0967 9.83333 21.0446 9.5625 20.9404C9.29167 20.8363 9.05208 20.6904 8.84375 20.5029C8.61458 20.3154 8.42188 20.0811 8.26562 19.7998C8.10938 19.5186 8.01042 19.2113 7.96875 18.8779C7.96875 18.8363 7.96875 18.7946 7.96875 18.7529C7.96875 18.7113 7.96875 18.6696 7.96875 18.6279C7.96875 17.9821 8.18229 17.4248 8.60938 16.9561C9.03646 16.4873 9.5625 16.2321 10.1875 16.1904C10.2083 16.1904 10.2396 16.1852 10.2812 16.1748C10.3229 16.1644 10.3646 16.1592 10.4062 16.1592C10.6354 16.1592 10.8646 16.1956 11.0938 16.2686C11.3229 16.3415 11.5312 16.43 11.7188 16.5342C11.8021 16.5967 11.901 16.6436 12.0156 16.6748C12.1302 16.7061 12.2396 16.7217 12.3438 16.7217C12.6979 16.7217 12.9948 16.6019 13.2344 16.3623C13.474 16.1227 13.5938 15.8363 13.5938 15.5029C13.5938 15.2738 13.5417 15.0654 13.4375 14.8779C13.3333 14.6904 13.1875 14.5446 13 14.4404C12.6458 14.2113 12.2552 14.029 11.8281 13.8936C11.401 13.7581 10.9479 13.68 10.4688 13.6592ZM1.71875 4.75293C1.38542 4.75293 1.09896 4.87272 0.859375 5.1123C0.619792 5.35189 0.5 5.63835 0.5 5.97168C0.5 8.18001 0.9375 9.96126 1.8125 11.3154C2.6875 12.6696 4.57292 13.3467 7.46875 13.3467C7.80208 13.3467 8.09375 13.2269 8.34375 12.9873C8.59375 12.7477 8.71875 12.4613 8.71875 12.1279C8.71875 11.7946 8.59375 11.5081 8.34375 11.2686C8.09375 11.029 7.80208 10.9092 7.46875 10.9092C5.55208 10.9092 4.32292 10.5498 3.78125 9.83105C3.23958 9.1123 2.96875 7.82585 2.96875 5.97168C2.96875 5.63835 2.84896 5.35189 2.60938 5.1123C2.36979 4.87272 2.07292 4.75293 1.71875 4.75293Z" fill="#0EA5E9"/>
</g>
</svg>
